<svg preserveAspectRatio="none" overflow="visible" style="display: block;" width="22" height="22" viewBox="0 0 22 22" fill="none" xmlns="http://www.w3.org/2000/svg">
<g id="coffee">
<path id="Vector" d="M9.16667 1.8326V3.66593M12.8333 1.8326V3.66593M14.6667 7.3326C14.9098 7.3326 15.1429 7.42918 15.3148 7.60109C15.4868 7.77299 15.5833 8.00615 15.5833 8.24927V15.5826C15.5833 16.5551 15.197 17.4877 14.5094 18.1753C13.8218 18.863 12.8891 19.2493 11.9167 19.2493H6.41667C5.44421 19.2493 4.51157 18.863 3.82394 18.1753C3.13631 17.4877 2.75 16.5551 2.75 15.5826V8.24927C2.75 8.00615 2.84658 7.77299 3.01849 7.60109C3.19039 7.42918 3.42355 7.3326 3.66667 7.3326H16.5C17.4725 7.3326 18.4051 7.71891 19.0927 8.40654C19.7804 9.09417 20.1667 10.0268 20.1667 10.9993C20.1667 11.9717 19.7804 12.9044 19.0927 13.592C18.4051 14.2796 17.4725 14.6659 16.5 14.6659H15.5833M5.5 1.8326V3.66593" stroke="#4A90E2" stroke-width="2" stroke-linecap="round"/>
</g>
</svg>
